M48
; DRILL file KiCad 10.0.4-10.0.4~ubuntu22.04.1 date 2026-09-09T02:18:05
; FORMAT={-:-/ absolute / metric / decimal}
; #@! TF.CreationDate,2026-09-09T02:18:05+02:00
; #@! TF.GenerationSoftware,Kicad,Pcbnew,10.0.4-10.0.4~ubuntu22.04.1
; #@! TF.FileFunction,MixedPlating,1,4
FMAT,2
METRIC
; #@! TA.AperFunction,Plated,PTH,ViaDrill
T1C0.300
; #@! TA.AperFunction,Plated,PTH,ComponentDrill
T2C0.300
; #@! TA.AperFunction,Plated,PTH,ViaDrill
T3C0.400
; #@! TA.AperFunction,Plated,PTH,ComponentDrill
T4C0.450
; #@! TA.AperFunction,Plated,PTH,ComponentDrill
T5C0.650
; #@! TA.AperFunction,Plated,PTH,ComponentDrill
T6C0.700
; #@! TA.AperFunction,Plated,PTH,ComponentDrill
T7C1.000
; #@! TA.AperFunction,NonPlated,NPTH,ComponentDrill
T8C1.150
; #@! TA.AperFunction,NonPlated,NPTH,ComponentDrill
T9C1.300
; #@! TA.AperFunction,NonPlated,NPTH,ComponentDrill
T10C1.650
%
G90
G05
T1
X113.4Y-106.95
X116.5Y-106.9
X119.583Y-106.917
X120.5Y-95.712
X121.6Y-102.725
X122.1Y-122.175
X122.1Y-122.975
X122.1Y-123.85
X123.15Y-114.192
X124.475Y-108.837
X125.0Y-114.125
X125.5Y-95.5
X125.5Y-97.5
X125.5Y-99.5
X125.5Y-101.5
X126.025Y-114.225
X126.8Y-93.3
X127.0Y-97.5
X127.0Y-99.5
X127.0Y-101.5
X127.0Y-108.837
X127.05Y-114.2
X127.775Y-115.2
X128.15Y-83.75
X128.175Y-88.4
X128.175Y-89.1
X128.175Y-89.825
X128.25Y-111.75
X128.7Y-76.9
X129.025Y-121.85
X129.5Y-108.837
X130.225Y-121.2
X130.7Y-111.75
X130.925Y-121.2
X131.4Y-114.475
X131.55Y-78.1
X131.6Y-121.2
X131.875Y-79.302
X132.525Y-115.375
X132.675Y-88.4
X132.675Y-89.1
X132.675Y-89.825
X132.84Y-121.54
X132.85Y-114.4
X133.293Y-76.45
X133.918Y-119.118
X133.95Y-117.475
X134.0Y-118.2
X134.062Y-83.15
X134.325Y-75.013
X134.575Y-77.263
X134.95Y-106.35
X134.95Y-107.2
X134.95Y-108.15
X136.0Y-91.125
X136.725Y-84.112
X138.5Y-91.1
X139.7Y-113.05
X140.5Y-106.35
X140.5Y-107.25
X140.5Y-108.15
X141.45Y-109.8
X141.75Y-112.0
X142.15Y-103.025
X143.2Y-106.362
X143.2Y-110.85
X143.45Y-97.65
X144.377Y-120.09
X144.45Y-112.1
X144.457Y-118.12
X145.05Y-109.8
X145.9Y-106.9
X146.4Y-95.0
X146.45Y-98.15
X146.675Y-113.05
X147.1Y-107.8
X149.35Y-97.35
X150.475Y-101.4
X150.6Y-110.975
X152.2Y-98.15
X152.225Y-110.325
X152.325Y-112.3
X153.05Y-80.3
X153.375Y-75.75
X154.0Y-101.85
X154.175Y-74.6
X154.25Y-117.0
X154.95Y-98.4
X155.4Y-73.15
X155.4Y-74.675
X155.85Y-98.4
X155.85Y-106.7
X156.047Y-78.587
X156.8Y-109.05
X157.05Y-76.725
X157.425Y-112.3
X158.625Y-90.225
X158.95Y-79.775
X159.9Y-93.125
X160.25Y-115.25
X161.5Y-73.15
X161.5Y-75.4
X161.525Y-79.75
X163.425Y-81.95
X163.425Y-84.3
X166.425Y-112.525
X166.5Y-106.7
X166.5Y-110.688
X167.33Y-108.812
X169.1Y-100.7
X170.75Y-87.695
X171.4Y-105.7
X171.725Y-81.275
X172.025Y-79.675
X172.575Y-83.95
X172.575Y-84.975
X172.575Y-86.15
X172.6Y-80.425
X172.6Y-82.375
X172.75Y-121.5
X174.326Y-100.3
X176.05Y-83.65
X177.95Y-83.0
X178.45Y-97.65
X181.525Y-81.425
X182.725Y-96.45
X182.825Y-85.25
X183.0Y-79.675
X183.7Y-81.45
X184.2Y-83.5
X184.925Y-88.775
X184.95Y-87.8
X185.0Y-80.65
X186.7Y-96.65
X188.3Y-81.4
X189.145Y-102.605
X193.45Y-100.1
X194.25Y-80.1
X194.325Y-94.2
X194.7Y-104.25
X194.775Y-90.4
X194.86Y-85.91
X195.15Y-104.9
X195.5Y-121.5
X195.65Y-89.1
T2
X188.836Y-85.554
X188.836Y-86.654
X189.386Y-85.004
X189.386Y-86.104
X189.386Y-87.204
X189.936Y-85.554
X189.936Y-86.654
X190.486Y-85.004
X190.486Y-86.104
X190.486Y-87.204
X191.036Y-85.554
X191.036Y-86.654
T3
X121.075Y-118.025
X129.15Y-115.325
X147.7Y-88.7
X150.5Y-89.4
X152.0Y-84.8
X155.0Y-120.6
X156.0Y-89.0
X165.3Y-120.7
X173.325Y-81.575
X180.25Y-92.925
X199.8Y-79.8
T4
X140.391Y-114.382
X140.791Y-115.093
X141.191Y-114.382
X141.591Y-115.093
X141.991Y-114.382
X142.391Y-115.093
X142.791Y-114.382
X143.591Y-114.382
X143.991Y-115.093
X144.391Y-114.382
X144.791Y-115.093
X145.191Y-114.382
X145.591Y-115.093
X145.991Y-114.382
T6
X147.963Y-77.85
X147.963Y-79.75
T7
X114.925Y-88.565
X114.925Y-91.105
X114.925Y-93.645
X114.925Y-96.185
X114.925Y-98.725
X115.375Y-75.84
X115.375Y-78.34
X115.375Y-80.84
X115.375Y-83.34
T8
X172.576Y-101.7
T9
X117.375Y-84.94
T10
X193.576Y-101.7
T5
X138.921Y-115.233G85X138.921Y-115.832
G05
X138.921Y-119.962G85X138.921Y-120.562
G05
X147.461Y-115.233G85X147.461Y-115.832
G05
X147.461Y-119.962G85X147.461Y-120.562
G05
M30
